<?xml version="1.0" encoding="UTF-8"?>
<svg version="1.1" xmlns="http://www.w3.org/2000/svg" width="1024" height="1024">
<path d="M0 0 C337.92 0 675.84 0 1024 0 C1024 337.92 1024 675.84 1024 1024 C686.08 1024 348.16 1024 0 1024 C0 686.08 0 348.16 0 0 Z " fill="#F3F3F3" transform="translate(0,0)"/>
<path d="M0 0 C2.62162221 1.3490186 5.18603266 2.73614456 7.75 4.1875 C8.53584473 4.62819824 9.32168945 5.06889648 10.13134766 5.52294922 C17.6062196 9.73526794 25.01074352 14.06802119 32.41357422 18.40527344 C40.20529378 22.96681576 48.03133308 27.46609044 55.875 31.9375 C68.17255607 38.94967582 80.44155744 46.0101868 92.69873047 53.09277344 C98.52702546 56.45992626 104.3573174 59.82361698 110.1875 63.1875 C111.26854004 63.81148682 112.34958008 64.43547363 113.46337891 65.07836914 C114.98777588 65.95803345 114.98777588 65.95803345 116.54296875 66.85546875 C117.43008545 67.36746826 118.31720215 67.87946777 119.23120117 68.40698242 C121.37655758 69.64130484 123.52388219 70.87190568 125.67304993 72.0995636 C126.77094345 72.72670761 127.86883698 73.35385162 129 74 C129.21027842 93.192953 129.36896653 112.38567217 129.46630955 131.57953835 C129.51271009 140.49173115 129.57596363 149.4032081 129.67895508 158.31494141 C129.76868447 166.08282967 129.82672914 173.85019955 129.84679645 181.61859167 C129.85852687 185.73192163 129.88607166 189.84376869 129.95157051 193.95662308 C130.01274864 197.8296132 130.03148924 201.70051286 130.01796913 205.57394028 C130.02044153 206.99381127 130.0383001 208.41375343 130.07284927 209.83320618 C130.32100321 220.5562478 130.32100321 220.5562478 127.04101753 224.14101315 C124.74911267 225.69295118 122.52322523 226.87346631 120 228 C118.93620117 228.65073486 117.87240234 229.30146973 116.77636719 229.97192383 C115.79313477 230.54450928 114.80990234 231.11709473 113.796875 231.70703125 C112.66668945 232.36719238 111.53650391 233.02735352 110.37207031 233.70751953 C109.7828479 234.0499469 109.19362549 234.39237427 108.58654785 234.74517822 C106.69520476 235.84434461 104.8058847 236.94692117 102.91699219 238.05029297 C100.26702989 239.59781362 97.61629724 241.14400054 94.96484375 242.68896484 C88.72221162 246.32687437 82.48502675 249.97407379 76.25 253.625 C75.64823944 253.97718597 75.04647888 254.32937195 74.42648315 254.69223022 C66.02079983 259.61360928 57.65392734 264.59521231 49.3125 269.625 C37.63711427 276.66414374 25.86377944 283.52918223 14.00219727 290.25 C11.90000398 291.47538192 9.82661405 292.75091012 7.77709961 294.0625 C6.72917236 294.7225 5.68124512 295.3825 4.6015625 296.0625 C3.19704834 296.97708984 3.19704834 296.97708984 1.76416016 297.91015625 C-1 299 -1 299 -4.06542969 298.30151367 C-7.25666419 296.78956281 -10.07298127 294.97446027 -13 293 C-15.14163458 291.72210354 -17.28784418 290.45185673 -19.4375 289.1875 C-20.71309588 288.41286665 -21.98776236 287.63670169 -23.26171875 286.859375 C-29.38122157 283.14565679 -35.57044196 279.54995875 -41.75 275.9375 C-51.41622567 270.28377886 -61.06186785 264.59764573 -70.6875 258.875 C-80.71039254 252.91982553 -90.78498616 247.06024535 -100.89038086 241.24633789 C-107.18915019 237.62239507 -113.48157565 233.98872928 -119.75 230.3125 C-120.41080566 229.92658691 -121.07161133 229.54067383 -121.75244141 229.14306641 C-123.50989132 228.10929952 -125.25535288 227.05523011 -127 226 C-128.56440575 225.37513199 -128.56440575 225.37513199 -130.16041565 224.73764038 C-133.54401937 221.47551148 -133.48629971 220.53347453 -133.78208923 215.97866821 C-133.82714044 213.36368107 -133.83951634 210.76113231 -133.82397461 208.14697266 C-133.8370187 206.70783609 -133.85256911 205.26872037 -133.87043762 203.82963562 C-133.91061961 199.92233481 -133.91234301 196.01590423 -133.90474772 192.10843706 C-133.90153871 188.84549462 -133.91618835 185.58272834 -133.93056399 182.31982362 C-133.9638545 174.62063388 -133.96516012 166.92188316 -133.94702148 159.22265625 C-133.92890418 151.28318133 -133.9658233 143.34530165 -134.02973169 135.40609896 C-134.08260095 128.58719398 -134.10058073 121.76879641 -134.09081846 114.94969404 C-134.08538143 110.87799491 -134.09326563 106.8074333 -134.13496208 102.73591995 C-134.17272332 98.90526823 -134.16685454 95.07709878 -134.12772942 91.24648476 C-134.12063709 89.84284307 -134.12882133 88.43902631 -134.15359879 87.0355854 C-134.32718835 76.43674977 -134.32718835 76.43674977 -131.02570534 72.8627243 C-128.73879194 71.31485359 -126.51631829 70.12641863 -124 69 C-123.02482422 68.40348633 -122.04964844 67.80697266 -121.04492188 67.19238281 C-120.19478516 66.70092773 -119.34464844 66.20947266 -118.46875 65.703125 C-117.50283936 65.14254395 -116.53692871 64.58196289 -115.54174805 64.00439453 C-114.53797119 63.42544434 -113.53419434 62.84649414 -112.5 62.25 C-110.350132 61.0028255 -108.20039282 59.75542892 -106.05078125 58.5078125 C-105.01002441 57.90485352 -103.96926758 57.30189453 -102.89697266 56.68066406 C-99.15275972 54.50847783 -95.41767569 52.32118382 -91.6875 50.125 C-91.03322021 49.74013428 -90.37894043 49.35526855 -89.70483398 48.95874023 C-85.41948861 46.43459254 -81.14217204 43.89712242 -76.8671875 41.35546875 C-64.49433278 34.00214852 -52.09179322 26.70972608 -39.61352539 19.53588867 C-30.8483487 14.49643233 -22.11166646 9.4097277 -13.38598633 4.30224609 C-12.44392334 3.75133301 -11.50186035 3.20041992 -10.53125 2.6328125 C-9.70173828 2.14699707 -8.87222656 1.66118164 -8.01757812 1.16064453 C-4.71871075 -0.73708242 -3.65182262 -1.17708655 0 0 Z " fill="#F3F3F3" transform="translate(284,346)"/>
<path d="M0 0 C0.69867188 0.41121094 1.39734375 0.82242187 2.1171875 1.24609375 C9.05827848 5.86912227 13.4900966 13.10521293 16 21 C16.24215488 23.77914956 16.38052335 26.41048127 16.375 29.1875 C16.37483887 29.9398291 16.37467773 30.6921582 16.37451172 31.46728516 C16.22065533 38.9997701 14.16960076 44.74559887 10 51 C10.59390533 51.26629715 11.18781067 51.5325943 11.79971313 51.80696106 C14.0512237 53.0277745 15.44501604 54.24319368 17.20458984 56.08862305 C17.80556488 56.71234299 18.40653992 57.33606293 19.02572632 57.97868347 C19.66434601 58.64958511 20.3029657 59.32048676 20.9609375 60.01171875 C22.33258419 61.4232544 23.70500381 62.83403931 25.078125 64.24414062 C27.23448317 66.46868501 29.38498206 68.69797345 31.52246094 70.94067383 C33.59038396 73.10524875 35.6796654 75.24717813 37.7734375 77.38671875 C38.40800873 78.06369308 39.04257996 78.74066742 39.69638062 79.43815613 C41.40115201 81.16253348 42.96411859 82.68257154 45 84 C48.24115466 84.09145846 48.24115466 84.09145846 51 83 C59.51764096 82.36996112 65.70647964 83.35256303 72.6875 88.5625 C77.68500097 93.08726439 79.63180601 99.00184892 80.4375 105.5625 C79.49038341 113.00413036 77.40155132 118.72121121 72 124 C67.13032043 127.41424725 62.61273208 129.13487805 56.6875 129.1875 C55.96949219 129.20167969 55.25148438 129.21585938 54.51171875 129.23046875 C51.19383686 128.92602858 48.17625711 127.97879787 45 127 C44.46632813 127.53890869 43.93265625 128.07781738 43.3828125 128.63305664 C40.92460574 131.11226236 38.46233634 133.58739599 36 136.0625 C34.74123047 137.33383789 34.74123047 137.33383789 33.45703125 138.63085938 C29.0384904 143.06652635 24.55927099 147.33887393 19.80859375 151.41625977 C17.08260226 153.80334222 14.53770544 156.35332953 12 158.9375 C11.26716797 159.67709961 11.26716797 159.67709961 10.51953125 160.43164062 C9.34396475 161.61873229 8.17161174 162.80900498 7 164 C7.32226562 165.00160156 7.64453125 166.00320313 7.9765625 167.03515625 C10.04743436 174.32352561 10.63389372 183.59698605 7.3125 190.5625 C6.58012418 191.73328765 5.81050542 192.88187701 5 194 C3.948125 195.5778125 3.948125 195.5778125 2.875 197.1875 C-2.16567709 202.93481407 -10.25263596 205.74594142 -17.6875 206.25 C-26.60448733 206.03572859 -32.46174036 202.5999961 -38.82421875 196.4453125 C-44.71857423 189.82077653 -45.44112141 183.72485315 -45.3359375 175.015625 C-45 172 -45 172 -43.9140625 169.359375 C-42.82322734 166.54371501 -42.93245053 165.78262894 -44 163 C-45.84181994 160.72806403 -45.84181994 160.72806403 -48.19140625 158.48046875 C-49.05443359 157.62259766 -49.91746094 156.76472656 -50.80664062 155.88085938 C-51.71607422 154.99205078 -52.62550781 154.10324219 -53.5625 153.1875 C-54.44486328 152.31029297 -55.32722656 151.43308594 -56.23632812 150.52929688 C-60.79927625 146.02030822 -65.43836916 141.65659587 -70.30053711 137.47241211 C-72.44212091 135.61694711 -74.48662263 133.68090338 -76.5 131.6875 C-77.50546875 130.70330078 -77.50546875 130.70330078 -78.53125 129.69921875 C-80 128 -80 128 -80 126 C-81.134375 126.495 -82.26875 126.99 -83.4375 127.5 C-90.20401674 129.97352457 -95.58681731 129.93601103 -102.1875 126.9375 C-107.85781609 123.81573966 -111.43948608 120.05009539 -114.375 114.3125 C-115.75693842 106.98822636 -116.22929161 100.36522894 -112.625 93.625 C-109.05312689 88.46285239 -104.96107954 85.06031848 -99 83 C-93.84461081 82.3945415 -88.58794334 82.16833031 -83.60009766 83.77124023 C-80.89201448 84.29206047 -80.89201448 84.29206047 -78.72338867 82.38867188 C-77.9626001 81.59009766 -77.20181152 80.79152344 -76.41796875 79.96875 C-75.56783203 79.09476562 -74.71769531 78.22078125 -73.84179688 77.3203125 C-72.96587891 76.38960938 -72.08996094 75.45890625 -71.1875 74.5 C-69.45421002 72.69562057 -67.71856535 70.89349984 -65.98046875 69.09375 C-64.72339111 67.78772827 -64.72339111 67.78772827 -63.44091797 66.45532227 C-60.65444659 63.65240741 -57.75213175 61.04663397 -54.73364258 58.49780273 C-52.00636649 56.14153759 -49.51595347 53.57885231 -47 51 C-47.4021875 50.01 -47.4021875 50.01 -47.8125 49 C-48.204375 48.01 -48.59625 47.02 -49 46 C-49.53625 44.9275 -50.0725 43.855 -50.625 42.75 C-53.50090597 35.00717625 -53.58214495 23.6400155 -50.375 15.9375 C-49.25390625 13.9140625 -49.25390625 13.9140625 -48 12 C-47.57589844 11.30648438 -47.15179688 10.61296875 -46.71484375 9.8984375 C-41.44360866 2.05765884 -34.10034282 -2.44330169 -24.9609375 -4.59375 C-16.06916605 -5.8137292 -7.73286094 -4.57209078 0 0 Z " fill="#304048" transform="translate(300,397)"/>
<path d="M0 0 C1.88671875 0.84106445 1.88671875 0.84106445 3.6875 1.86328125 C4.71834717 2.44190918 4.71834717 2.44190918 5.77001953 3.03222656 C6.87385986 3.66596191 6.87385986 3.66596191 8 4.3125 C8.78616699 4.7569043 9.57233398 5.20130859 10.38232422 5.65917969 C12.92543499 7.09939294 15.46273577 8.54951618 18 10 C19.66901029 10.94707387 21.33828097 11.89368903 23.0078125 12.83984375 C33.28744316 18.67831796 43.50786136 24.61636663 53.71435547 30.58154297 C67.77570821 38.79688775 81.87852241 46.94107131 96.0234375 55.01171875 C96.61717163 55.35056091 97.21090576 55.68940308 97.82263184 56.03851318 C100.63295875 57.64199871 103.44412692 59.24395555 106.25683594 60.84326172 C108.41029358 62.07036982 110.54300987 63.33450259 112.65487671 64.63188171 C115.95758535 66.55770701 119.29020735 67.88395615 122.8757019 69.20201111 C129.85198645 72.05402773 136.08045347 75.15000007 141 81 C145.2772401 91.5614773 144.4248622 103.67261756 144.2238121 114.87291527 C144.16251528 119.36033028 144.21954364 123.84663764 144.25708008 128.33410645 C144.30060302 135.86765542 144.24362292 143.39553727 144.12890625 150.92822266 C143.99825475 159.60678202 144.04057758 168.2718172 144.17273998 176.95004892 C144.28210509 184.43445801 144.29682147 191.9148231 144.23421192 199.39977407 C144.19701619 203.85568694 144.1911097 208.30526671 144.27108765 212.76075745 C144.6870528 239.56397533 144.6870528 239.56397533 138.67199707 246.80090332 C133.04616836 251.43281384 126.87988431 254.21843604 120.09550476 256.74713135 C115.02902706 258.7977278 110.5046954 261.68475791 105.875 264.5625 C104.07125651 265.63529591 102.26552877 266.70476914 100.45703125 267.76953125 C99.56322754 268.29885254 98.66942383 268.82817383 97.74853516 269.37353516 C94.92089766 271.04680936 92.09156008 272.71717465 89.26171875 274.38671875 C78.33708489 280.82457368 78.33708489 280.82457368 67.45947266 287.34130859 C56.90773123 293.72178177 46.19989919 299.83363956 35.51074219 305.97998047 C31.93491351 308.0366883 28.36168377 310.09788312 24.7890625 312.16015625 C24.20113419 312.49952209 23.61320587 312.83888794 23.00746155 313.1885376 C21.27578617 314.18815443 19.54414281 315.18782675 17.8125 316.1875 C11.55609881 319.79899067 11.55609881 319.79899067 8.57666016 321.49755859 C6.99164486 322.4217754 5.42366473 323.37698323 3.88818359 324.38134766 C2.07421875 325.55078125 2.07421875 325.55078125 -1 327 C-4.72457615 325.85857276 -7.97456934 323.96609672 -11.33203125 322.015625 C-12.36497314 321.41766113 -13.39791504 320.81969727 -14.4621582 320.20361328 C-15.567771 319.5589209 -16.67338379 318.91422852 -17.8125 318.25 C-18.9818629 317.57118979 -20.15138042 316.89264586 -21.32104492 316.21435547 C-24.31327686 314.47792992 -27.30306206 312.73734089 -30.29199219 310.99523926 C-32.87079811 309.49259455 -35.45117444 307.99265088 -38.03125 306.4921875 C-44.02558353 303.00290334 -50.01341401 299.50255582 -56 296 C-57.13308594 295.33742188 -58.26617187 294.67484375 -59.43359375 293.9921875 C-73.57658009 285.7211003 -87.69892913 277.41689903 -101.78466797 269.04858398 C-107.84291991 265.45247349 -113.91179944 261.8760419 -119.99609375 258.32421875 C-120.99420578 257.74113449 -120.99420578 257.74113449 -122.01248169 257.14627075 C-125.24346571 255.25905176 -128.47592191 253.37444037 -131.7109375 251.49414062 C-132.87896256 250.81259649 -134.04693409 250.13096062 -135.21484375 249.44921875 C-136.23698975 248.85455811 -137.25913574 248.25989746 -138.31225586 247.6472168 C-139.64268921 246.83184448 -139.64268921 246.83184448 -141 246 C-141.70426463 245.60369794 -142.40852926 245.20739588 -143.13413525 244.79908466 C-145 243 -145 243 -145.51733112 240.13321972 C-145.52533332 238.95650865 -145.53333551 237.77979757 -145.5415802 236.56742859 C-145.55623189 235.58375587 -145.55623189 235.58375587 -145.57117957 234.58021098 C-145.59888687 232.37832279 -145.59790675 230.17739058 -145.59692383 227.9753418 C-145.6105269 226.39843316 -145.62575918 224.82153785 -145.64250183 223.24465942 C-145.68216372 218.95733519 -145.69560576 214.67031331 -145.70195985 210.38282371 C-145.70702143 207.7044136 -145.71752795 205.02608173 -145.72995567 202.3476963 C-145.77297208 193.00397101 -145.79417327 183.66047162 -145.79614258 174.31665039 C-145.79857635 165.60648313 -145.84955861 156.89750739 -145.92303449 148.18767613 C-145.98388328 140.71067722 -146.01005843 133.23407078 -146.00947779 125.75682575 C-146.00976114 121.29049555 -146.0242185 116.82530632 -146.07383156 112.35922813 C-146.11937025 108.15693967 -146.12174728 103.95680074 -146.09114265 99.75439835 C-146.08723574 98.21365811 -146.09866472 96.67278985 -146.12668228 95.13229942 C-146.32516711 83.48833687 -146.32516711 83.48833687 -143.02487278 79.78167248 C-140.73422264 78.22957587 -138.54016295 77.08262449 -136 76 C-135.0510083 75.41919678 -134.1020166 74.83839355 -133.12426758 74.23999023 C-132.30595459 73.76762939 -131.4876416 73.29526855 -130.64453125 72.80859375 C-129.70399902 72.26323975 -128.7634668 71.71788574 -127.79443359 71.15600586 C-126.31837646 70.30534546 -126.31837646 70.30534546 -124.8125 69.4375 C-122.67547404 68.19844636 -120.53876201 66.95885115 -118.40234375 65.71875 C-117.33097168 65.09742188 -116.25959961 64.47609375 -115.15576172 63.8359375 C-110.38224122 61.05883134 -105.62729901 58.25072383 -100.875 55.4375 C-99.97483154 54.90495605 -99.07466309 54.37241211 -98.1472168 53.82373047 C-95.43112676 52.21641248 -92.71548391 50.60834177 -90 49 C-77.85065112 41.80411673 -65.685304 34.63767153 -53.484375 27.52954102 C-45.82890818 23.06899684 -38.1794784 18.59826407 -30.53494263 14.11901855 C-29.28186504 13.38485144 -28.02867465 12.65087679 -26.77536011 11.91711426 C-25.58458828 11.21992191 -24.39405659 10.52231922 -23.20378113 9.82427979 C-21.51661723 8.83596348 -19.82718227 7.85152737 -18.13769531 6.8671875 C-16.10520609 5.65768878 -14.0921894 4.41459229 -12.10449219 3.1328125 C-11.23211914 2.57335937 -10.35974609 2.01390625 -9.4609375 1.4375 C-8.71376465 0.94121094 -7.9665918 0.44492187 -7.19677734 -0.06640625 C-4.34941986 -1.27648571 -2.91981886 -0.91560542 0 0 Z M-11.8125 17.1875 C-13.00685669 17.86026978 -13.00685669 17.86026978 -14.2253418 18.54663086 C-22.18678001 23.05587983 -30.05654576 27.72037448 -37.921875 32.39453125 C-44.61949115 36.37358633 -51.34008997 40.3130615 -58.0625 44.25 C-59.29216792 44.97043685 -60.5218228 45.69089594 -61.75146484 46.41137695 C-66.12903967 48.9761224 -70.50708884 51.54005773 -74.88513184 54.10400391 C-82.79813549 58.73825765 -90.70990036 63.37460677 -98.61865234 68.01611328 C-100.83205829 69.31475131 -103.04590844 70.6126326 -105.26025391 71.90966797 C-108.25838458 73.66632313 -111.2544671 75.42641965 -114.25 77.1875 C-115.11230225 77.6918457 -115.97460449 78.19619141 -116.86303711 78.71582031 C-117.67651611 79.1950293 -118.48999512 79.67423828 -119.328125 80.16796875 C-120.0180957 80.57297607 -120.70806641 80.9779834 -121.41894531 81.39526367 C-122.27069336 81.92482666 -123.12244141 82.45438965 -124 83 C-124.71861898 83.32185744 -125.43723797 83.64371489 -126.17763329 83.97532558 C-128.93533854 85.40399905 -130.87602623 86.72031825 -133 89 C-134.38242483 93.63298446 -134.27391654 98.25370691 -134.22802734 103.04833984 C-134.24678675 104.48455464 -134.26930557 105.9207245 -134.29528809 107.35682678 C-134.35330183 111.24793177 -134.35397162 115.13704705 -134.3406558 119.02848768 C-134.33434586 122.28148557 -134.35511496 125.53409017 -134.37551081 128.7870127 C-134.42281026 136.46443993 -134.42261514 144.14087274 -134.39306641 151.81835938 C-134.36347074 159.72785832 -134.41445412 167.63394285 -134.50517309 175.54290044 C-134.58028025 182.34331825 -134.60480295 189.14265618 -134.58918345 195.94346964 C-134.58038895 200.00113832 -134.59055387 204.05645144 -134.64957809 208.11375046 C-134.70295051 211.93223962 -134.69287513 215.74551332 -134.63504028 219.56388664 C-134.62429179 220.96024064 -134.63546178 222.35697189 -134.67079544 223.75292015 C-134.77358551 228.13749634 -134.61194124 231.89938682 -133 236 C-129.02399679 239.61473677 -124.86700411 241.70753819 -120 244 C-117.9640993 245.16126887 -115.93635653 246.33711569 -113.921875 247.53515625 C-111.86532742 248.71223849 -109.80801287 249.88798155 -107.75 251.0625 C-98.83605962 256.17451805 -89.9841168 261.37557302 -81.1875 266.6875 C-72.76620416 271.77070723 -64.29045963 276.73465907 -55.734375 281.5871582 C-50.43636837 284.59597105 -45.16729778 287.64787504 -39.92578125 290.75415039 C-38.10895918 291.82956781 -36.28866066 292.89913488 -34.46484375 293.96264648 C-29.44244567 296.90172891 -24.52571899 299.94560568 -19.6640625 303.14453125 C-18.60421143 303.81887207 -17.54436035 304.49321289 -16.45239258 305.18798828 C-14.40481727 306.49190258 -12.37942054 307.83152303 -10.3815918 309.21044922 C-7.54080946 310.9867038 -5.26886431 312.25222814 -2 313 C2.23987779 311.82356374 5.43016255 309.51255848 9 307 C10.76561949 305.98837135 12.54306307 304.99708472 14.33203125 304.02734375 C26.74724182 297.04160758 39.05466196 289.89153864 51.296875 282.60742188 C55.71422684 279.98062956 60.13817975 277.36503295 64.5625 274.75 C65.89788818 273.9600061 65.89788818 273.9600061 67.26025391 273.15405273 C72.50644988 270.05344121 77.76096337 266.96742566 83.0234375 263.89453125 C94.81390311 257.00781478 106.58415869 250.09672783 118.25 243 C119.71457642 242.10970093 119.71457642 242.10970093 121.20874023 241.20141602 C125.32293184 238.89239215 125.32293184 238.89239215 129 236 C129.09658904 234.08905061 129.12187192 232.17448134 129.12025452 230.26109314 C129.12162918 229.01442368 129.12300385 227.76775421 129.12442017 226.48330688 C129.12088056 225.08905006 129.11724574 223.69479347 129.11352539 222.30053711 C129.11324353 220.84228009 129.11340124 219.38402293 129.1139679 217.92576599 C129.1142559 213.95486515 129.10835877 209.98399425 129.10139394 206.01310039 C129.09516081 201.86774899 129.09455663 197.72239698 129.09336853 193.57704163 C129.09025509 185.72180673 129.08204154 177.86658568 129.07201904 170.01135689 C129.06085829 161.07075601 129.05534755 152.13015448 129.05032361 143.18954837 C129.03985893 124.79302439 129.02225925 106.3965133 129 88 C128.22053009 87.55491592 127.44106018 87.10983185 126.63796997 86.65126038 C123.67789401 84.96086917 120.71794968 83.27024792 117.75808716 81.57948303 C116.48978658 80.85504944 115.22143725 80.1307012 113.95303345 79.40644836 C99.87205786 71.36611146 85.83008478 63.25877389 71.79101562 55.14550781 C68.56931727 53.28397329 65.34727287 51.42303987 62.125 49.5625 C61.06039551 48.94769775 59.99579102 48.33289551 58.89892578 47.69946289 C53.24531194 44.43782793 47.58512145 41.1882087 41.9140625 37.95703125 C41.32194473 37.61956375 40.72982697 37.28209625 40.11976624 36.93440247 C37.74209476 35.57943322 35.36440293 34.2245039 32.98568726 32.87136841 C26.77324659 29.33633231 20.58367373 25.77054374 14.44921875 22.1015625 C12.92312988 21.18914795 12.92312988 21.18914795 11.36621094 20.25830078 C9.46082259 19.1143689 7.55892138 17.96460167 5.66113281 16.80810547 C4.82291992 16.30424316 3.98470703 15.80038086 3.12109375 15.28125 C2.3933374 14.83845703 1.66558105 14.39566406 0.91577148 13.93945312 C-3.9099487 11.57302375 -7.64087864 14.8085229 -11.8125 17.1875 Z " fill="#2E3E45" transform="translate(284,332)"/>
<path d="M0 0 C0.64412842 0.29712891 1.28825684 0.59425781 1.9519043 0.90039062 C12.68677821 5.74494012 21.96333575 5.80748144 33 2 C34.99964446 1.33226765 36.99960475 0.66547973 39 0 C43.88487479 4.70753648 48.74220779 9.44219293 53.58129883 14.19677734 C55.23098994 15.81124432 56.88690584 17.41937593 58.54907227 19.02099609 C60.93606108 21.32316805 63.29980235 23.64712917 65.66015625 25.9765625 C66.40902603 26.68930328 67.15789581 27.40204407 67.92945862 28.13638306 C69.81702209 30.02248058 71.51823716 31.78080888 73 34 C72.96704102 37.30029297 72.96704102 37.30029297 72 40 C71.9106582 42.16522484 71.86984033 44.33293887 71.875 46.5 C71.87242187 47.5828125 71.86984375 48.665625 71.8671875 49.78125 C71.82601424 52.9713349 71.82601424 52.9713349 73.02172852 55.64501953 C72.99040361 60.4817251 70.64486801 62.15051825 67.31959534 65.47348022 C66.48323044 66.27371613 65.64686554 67.07395203 64.78515625 67.8984375 C63.9402916 68.73339752 63.09542694 69.56835754 62.22496033 70.42861938 C59.520104 73.09426087 56.79194372 75.73456249 54.0625 78.375 C52.225627 80.17676939 50.39031951 81.98013628 48.55664062 83.78515625 C44.05576846 88.20880801 39.53551464 92.61188899 35 97 C31.51329166 95.8905928 28.22515763 94.73662334 25 93 C24.95043165 88.24944568 24.91420091 83.49904312 24.89013672 78.74829102 C24.88010104 77.13335547 24.86646949 75.518438 24.84912109 73.90356445 C24.82476535 71.57759125 24.81349253 69.25185905 24.8046875 66.92578125 C24.79436493 66.20787918 24.78404236 65.48997711 24.77340698 64.75032043 C24.77250286 60.6784996 25.30195829 57.68756282 27 54 C27.44553929 50.3614291 27.50181122 48.71411597 25.375 45.6875 C22.39914885 43.57307944 20.66441916 42.92521594 17 43 C13.85641749 44.7260029 13.85641749 44.7260029 12 48 C11.96444667 50.01096783 11.96444667 50.01096783 12.36499023 52.14819336 C12.9958138 56.71959884 13.12976005 61.14477101 13.09765625 65.75390625 C13.0962413 66.54022934 13.09482635 67.32655243 13.09336853 68.13670349 C13.08783672 70.61201015 13.07529775 73.08722137 13.0625 75.5625 C13.05747616 77.25585806 13.05291481 78.94921755 13.04882812 80.64257812 C13.03788978 84.7617547 13.02067362 88.88086125 13 93 C11.76115681 93.72767003 10.50831659 94.43154815 9.25 95.125 C8.55390625 95.51945313 7.8578125 95.91390625 7.140625 96.3203125 C5 97 5 97 3.10113525 96.26321411 C0.80065319 94.8801516 -0.86787753 93.37248953 -2.75878906 91.46826172 C-3.47923401 90.74766571 -4.19967896 90.0270697 -4.94195557 89.28463745 C-5.70876648 88.50750397 -6.47557739 87.73037048 -7.265625 86.9296875 C-8.05902283 86.13345978 -8.85242065 85.33723206 -9.66986084 84.51687622 C-12.20130703 81.97424052 -14.72570803 79.42473652 -17.25 76.875 C-18.96568617 75.14928247 -20.68182662 73.42401645 -22.3984375 71.69921875 C-26.60424248 67.47136968 -30.80428507 63.23786131 -35 59 C-34.67547852 57.90888916 -34.35095703 56.81777832 -34.01660156 55.69360352 C-33.06631385 52.24093715 -32.73124556 49.49615516 -32.75 45.9375 C-32.74226562 44.46603516 -32.74226562 44.46603516 -32.734375 42.96484375 C-33.02455484 39.72592469 -33.93093901 37.05988185 -35 34 C-31.30458443 30.27964651 -27.60572918 26.56275774 -23.90380859 22.84887695 C-22.6480018 21.58807785 -21.39309836 20.32637824 -20.13916016 19.0637207 C-6.77236237 5.60639082 -6.77236237 5.60639082 0 0 Z " fill="#F3F3F3" transform="translate(263,456)"/>
<path d="M0 0 C17 0 17 0 21.16015625 3.91796875 C22.14797807 5.58828564 23.09487085 7.28346521 24 9 C25.06470222 10.54980899 26.14678554 12.08782388 27.24609375 13.61328125 C28.31283246 15.1776891 29.37658927 16.74413402 30.4375 18.3125 C30.99735596 19.13339111 31.55721191 19.95428223 32.1340332 20.80004883 C34.63778201 24.47863639 37.12209725 28.16725688 39.546875 31.8984375 C40.25328125 32.98382813 40.9596875 34.06921875 41.6875 35.1875 C42.28949219 36.12980469 42.89148438 37.07210937 43.51171875 38.04296875 C44.24841797 39.01169922 44.24841797 39.01169922 45 40 C45.66 40 46.32 40 47 40 C48.57458041 37.97161443 48.57458041 37.97161443 50.25 35.25 C54.09538335 29.33402562 58.07567959 23.52833967 62.125 17.75 C62.71055664 16.91114258 63.29611328 16.07228516 63.89941406 15.20800781 C65.0447394 13.57358016 66.20732322 11.9510966 67.38769531 10.34179688 C69.04325656 8.06081388 69.04325656 8.06081388 70.16699219 5.61132812 C71.3671875 3.390625 71.3671875 3.390625 75 0 C80.61 0 86.22 0 92 0 C92 30.03 92 60.06 92 91 C86.72 91 81.44 91 76 91 C75.67 70.54 75.34 50.08 75 29 C69.6050397 36.1932804 64.31848671 43.30647804 59.3125 50.75 C55.35541328 56.62056227 51.30373711 62.37729802 47 68 C38.31319673 57.18098138 30.13855114 46.09018064 22.21142578 34.70654297 C21.22784825 33.32097124 20.19676568 31.96921092 19.15234375 30.62890625 C18 29 18 29 18 27 C17.34 27 16.68 27 16 27 C16 48.12 16 69.24 16 91 C10.72 91 5.44 91 0 91 C0 60.97 0 30.94 0 0 Z " fill="#304048" transform="translate(490,386)"/>
<path d="M0 0 C21.78 0 43.56 0 66 0 C66 4.95 66 9.9 66 15 C49.5 15 33 15 16 15 C16 23.25 16 31.5 16 40 C30.52 40 45.04 40 60 40 C60 44.95 60 49.9 60 55 C45.48 55 30.96 55 16 55 C16 66.88 16 78.76 16 91 C10.72 91 5.44 91 0 91 C0 60.97 0 30.94 0 0 Z " fill="#34464D" transform="translate(605,386)"/>
<path d="M0 0 C6.55399627 3.53440584 10.2845097 9.49024786 12.5859375 16.39453125 C15.11370495 26.73539808 13.80292788 37.4042733 8.7734375 46.76953125 C5.39729297 50.82090469 1.58940523 54.49724315 -3.4140625 56.39453125 C-20.43333371 57.88805913 -20.43333371 57.88805913 -26.84375 53.77734375 C-33.95696554 47.51346738 -36.90824948 40.12707882 -37.73046875 30.80859375 C-38.02858982 21.32642049 -36.89699844 12.76937107 -31.1640625 4.95703125 C-22.0761085 -3.51128953 -11.28686192 -4.47364415 0 0 Z " fill="#2E3E45" transform="translate(574.4140625,520.60546875)"/>
<path d="M0 0 C30.53846154 0 30.53846154 0 36.8125 5.4375 C41.14921223 10.51764862 41.44463626 14.44538181 41.30859375 21.0234375 C40.84567871 25.48851676 39.81048746 27.46887473 37 31 C35.811727 31.93543501 34.59261894 32.83286138 33.34765625 33.69140625 C32.71996338 34.12783447 32.09227051 34.5642627 31.44555664 35.01391602 C30.7300061 35.50202759 30.7300061 35.50202759 30 36 C30.32274902 36.48879639 30.64549805 36.97759277 30.97802734 37.48120117 C32.44832799 39.71361559 33.91170507 41.95048788 35.375 44.1875 C35.88289062 44.95642578 36.39078125 45.72535156 36.9140625 46.51757812 C39.34486963 50.24374958 41.58480468 53.74588876 43 58 C39.20281612 58.54728095 35.779816 58.74339871 32 58 C29.15912391 55.47613154 27.73358608 52.34266044 26 49 C24.72172768 47.01215611 23.42995515 45.03293029 22.125 43.0625 C19 38.25324675 19 38.25324675 19 36 C16.03 36 13.06 36 10 36 C10 43.26 10 50.52 10 58 C6.7 58 3.4 58 0 58 C0 38.86 0 19.72 0 0 Z " fill="#33434A" transform="translate(811,519)"/>
<path d="M0 0 C3.63 0 7.26 0 11 0 C15.62 8.25 20.24 16.5 25 25 C25.99 25 26.98 25 28 25 C32.62 16.75 37.24 8.5 42 0 C45.96 0 49.92 0 54 0 C54 19.14 54 38.28 54 58 C51.03 58 48.06 58 45 58 C44.67 44.47 44.34 30.94 44 17 C38.39 26.24 32.78 35.48 27 45 C24.19439036 42.19439036 22.60783196 39.86128661 20.64453125 36.45703125 C19.80305542 35.00647339 19.80305542 35.00647339 18.94458008 33.52661133 C17.88920044 31.68812622 17.88920044 31.68812622 16.8125 29.8125 C13.4403125 23.9653125 13.4403125 23.9653125 10 18 C9.67 31.2 9.34 44.4 9 58 C6.03 58 3.06 58 0 58 C0 38.86 0 19.72 0 0 Z " fill="#2D3E46" transform="translate(690,519)"/>
<path d="M0 0 C26 0 26 0 34 4 C39.45948792 9.69180656 40.31757049 13.64399318 40.20703125 21.28125 C39.78827231 26.78042405 37.46778231 29.75575645 33.5 33.3125 C30.03824419 36.20488808 27.26571253 37.12954406 22.76953125 37.09765625 C22.04612549 37.09515869 21.32271973 37.09266113 20.57739258 37.09008789 C19.20877075 37.07643188 19.20877075 37.07643188 17.8125 37.0625 C14.904375 37.041875 11.99625 37.02125 9 37 C9 43.93 9 50.86 9 58 C6.03 58 3.06 58 0 58 C0 38.86 0 19.72 0 0 Z " fill="#2B3C44" transform="translate(489,519)"/>
<path d="M0 0 C5.67418308 5.15024083 8.95830179 9.98438874 9.4375 17.6875 C9.28124035 24.23087275 7.00112018 30.13678687 2.21484375 34.703125 C-4.23356346 39.46755326 -10.24683732 39.67975632 -18 39 C-24.70862184 37.25331073 -28.54465131 32.82268102 -32 27 C-33.82768377 21.51694869 -34.16358753 15.06946365 -32.09375 9.609375 C-28.89247262 4.23287068 -24.85651325 0.3040604 -19.125 -2.3125 C-12.3571005 -3.80143789 -6.02278858 -3.6305033 0 0 Z " fill="#8CB8D2" transform="translate(294,409)"/>
<path d="M0 0 C12.54 0 25.08 0 38 0 C38 2.97 38 5.94 38 9 C28.43 9 18.86 9 9 9 C9 13.95 9 18.9 9 24 C17.58 24 26.16 24 35 24 C35 26.97 35 29.94 35 33 C26.42 33 17.84 33 9 33 C9 38.28 9 43.56 9 49 C18.57 49 28.14 49 38 49 C38 51.97 38 54.94 38 58 C25.46 58 12.92 58 0 58 C0 38.86 0 19.72 0 0 Z " fill="#2C3C44" transform="translate(759,519)"/>
<path d="M0 0 C3.93083031 2.22825511 6.25838585 4.59982705 8.75 8.375 C9.5625 11.75 9.5625 11.75 9.75 14.375 C6.45 14.375 3.15 14.375 -0.25 14.375 C-0.91 13.055 -1.57 11.735 -2.25 10.375 C-4.70382134 9.14808933 -6.44984103 9.17324069 -9.1875 9.125 C-10.06277344 9.09921875 -10.93804688 9.0734375 -11.83984375 9.046875 C-14.28640521 9.18633588 -14.28640521 9.18633588 -16.03515625 10.671875 C-18.10645835 13.57569403 -17.73882894 15.95319745 -17.25 19.375 C-12.84077914 22.84482831 -7.59021433 23.60731092 -2.22070312 24.66015625 C2.9989219 25.81787403 5.90570442 27.63539023 9.75 31.375 C12.16020193 35.42852143 12.4134818 39.7646521 11.75 44.375 C10.20240434 49.6838408 7.43326759 53.80598686 2.5625 56.52734375 C-1.42080137 57.72786652 -5.23114176 57.88079194 -9.375 57.9375 C-10.53926514 57.95973633 -10.53926514 57.95973633 -11.72705078 57.98242188 C-18.22306552 57.86560209 -21.88389517 55.67715605 -26.5625 51.125 C-28.81673986 47.45142393 -28.95987885 44.65428699 -29.25 40.375 C-25.95 40.375 -22.65 40.375 -19.25 40.375 C-18.8375 41.32375 -18.425 42.2725 -18 43.25 C-16.53814834 46.32983389 -16.53814834 46.32983389 -14.5 47.75 C-10.06631109 48.98158025 -6.51227863 49.00613932 -2.375 46.9375 C-0.37095255 45.54621855 -0.37095255 45.54621855 0.75 44.375 C1.25031206 40.95928147 1.25031206 40.95928147 0.75 37.375 C-3.639628 33.89036275 -8.91726559 33.14122243 -14.27929688 32.08984375 C-19.49915998 30.93207316 -22.40306384 29.11135857 -26.25 25.375 C-28.85234245 21.11662144 -29.02585225 16.22407656 -28.25 11.375 C-25.80226542 5.16824447 -22.19215013 2.12599543 -16.25 -0.625 C-10.72542882 -2.46652373 -5.33994339 -2.4419855 0 0 Z " fill="#2D3D45" transform="translate(892.25,519.625)"/>
<path d="M0 0 C4.58204543 2.0748885 7.27665626 4.79487869 9.3046875 9.328125 C11.18999397 16.57278581 11.4607666 25.94502699 8.25 32.8125 C5.42923545 36.80858311 3.59275552 38.46908149 -1 40 C-7.41550928 40.53462577 -10.79800755 39.87599437 -16 36 C-20.50740178 28.93840388 -21.05437351 20.65608842 -19.5390625 12.52734375 C-17.94680817 6.91698879 -15.8037556 4.27064211 -11 1 C-7.51829829 -0.74085086 -3.80665424 -0.44293279 0 0 Z " fill="#F3F3F3" transform="translate(567,528)"/>
<path d="M0 0 C3.4450286 -0.48163507 6.56777488 -0.64188445 10 0 C12.55473562 2.14117529 13.6112195 5.01684915 15 8 C16.0484171 9.98429817 17.11994009 11.95528938 18.19091797 13.92749023 C19.82014043 16.93804084 21.40944601 19.96886982 23 23 C25.14255963 20.26667107 26.87840312 17.53241997 28.48046875 14.453125 C28.92197266 13.60878906 29.36347656 12.76445313 29.81835938 11.89453125 C30.49608398 10.58548828 30.49608398 10.58548828 31.1875 9.25 C31.88262695 7.91775391 31.88262695 7.91775391 32.59179688 6.55859375 C33.73104689 4.37405248 34.86595129 2.18724592 36 0 C39.96 0 43.92 0 48 0 C47.24026849 1.45633347 46.47922459 2.91199143 45.71313477 4.36499023 C45.01463729 5.69132072 44.32131173 7.0203849 43.63256836 8.35180664 C41.62158674 12.17865185 39.49846832 15.81479723 37.0546875 19.3828125 C28.60107537 32.0536212 27.34302605 42.9051029 28 58 C25.03 58 22.06 58 19 58 C19.10183594 56.58074219 19.20367188 55.16148437 19.30859375 53.69921875 C19.95873585 34.72703731 12.87097389 22.4607492 3 7 C0 2.25574468 0 2.25574468 0 0 Z " fill="#2D3D44" transform="translate(632,519)"/>
<path d="M0 0 C2.97 0 5.94 0 9 0 C9 16.17 9 32.34 9 49 C17.91 49 26.82 49 36 49 C36 51.97 36 54.94 36 58 C24.12 58 12.24 58 0 58 C0 38.86 0 19.72 0 0 Z " fill="#2A3B43" transform="translate(599,519)"/>
<path d="M0 0 C4.45498552 2.1102563 7.22604963 4.36801849 9 9 C9.6520567 14.26475412 9.65063461 18.56860385 7.4375 23.4375 C3.4965066 27.58059562 -0.2313797 30.16551891 -6.0625 30.5 C-11.73733144 29.77938648 -14.5847122 27.60654291 -18.3125 23.375 C-21.14175659 19.39308332 -21.50622537 16.51963846 -21.4921875 11.68359375 C-20.6298443 6.98177013 -17.52186365 4.05175063 -14 1 C-9.81612181 -1.0919391 -4.55616307 -0.42881535 0 0 Z " fill="#8CB9D3" transform="translate(288,561)"/>
<path d="M0 0 C21.78 0 43.56 0 66 0 C66 4.95 66 9.9 66 15 C49.5 15 33 15 16 15 C16 23.25 16 31.5 16 40 C30.52 40 45.04 40 60 40 C60 44.95 60 49.9 60 55 C45.48 55 30.96 55 16 55 C16 54.67 16 54.34 16 54 C29.86 54 43.72 54 58 54 C58 49.71 58 45.42 58 41 C56.05395874 41.00785522 56.05395874 41.00785522 54.06860352 41.01586914 C49.27352585 41.03391469 44.4784512 41.04543037 39.68334961 41.05493164 C37.60456844 41.05997288 35.52579084 41.06680574 33.44702148 41.07543945 C30.46597414 41.08751422 27.48497351 41.09323024 24.50390625 41.09765625 C23.10078941 41.10539818 23.10078941 41.10539818 21.66932678 41.11329651 C20.37810158 41.11340981 20.37810158 41.11340981 19.06079102 41.11352539 C18.29912125 41.115746 17.53745148 41.11796661 16.75270081 41.12025452 C15 41 15 41 14 40 C13.91251793 38.07332493 13.89302666 36.14348139 13.90234375 34.21484375 C13.90556641 33.04501953 13.90878906 31.87519531 13.91210938 30.66992188 C13.92048828 29.43822266 13.92886719 28.20652344 13.9375 26.9375 C13.94201172 25.70193359 13.94652344 24.46636719 13.95117188 23.19335938 C13.96300392 20.12885883 13.97948827 17.06445279 14 14 C16.41774581 12.79112709 17.93331064 12.87940657 20.63330078 12.88647461 C21.59414581 12.88655014 22.55499084 12.88662567 23.54495239 12.88670349 C24.58457123 12.89186478 25.62419006 12.89702606 26.6953125 12.90234375 C27.75789276 12.9037587 28.82047302 12.90517365 29.91525269 12.90663147 C33.31853009 12.91224166 36.72174238 12.92479591 40.125 12.9375 C42.42838447 12.94251369 44.73176997 12.94707682 47.03515625 12.95117188 C52.69012936 12.96221441 58.34505363 12.97948591 64 13 C64 9.04 64 5.08 64 1 C43.21 1 22.42 1 1 1 C1 30.37 1 59.74 1 90 C5.29 90 9.58 90 14 90 C14 78.45 14 66.9 14 55 C14.33 55 14.66 55 15 55 C15.33 66.88 15.66 78.76 16 91 C10.72 91 5.44 91 0 91 C0 60.97 0 30.94 0 0 Z " fill="#0F1E28" transform="translate(605,386)"/>
<path d="M0 0 C3.73290476 0.02670175 5.0381884 0.18281943 8.3125 2.1875 C11.70790857 5.9114965 11.63765771 8.93521642 11.609375 13.828125 C11.25 16.3125 11.25 16.3125 8.875 19.375 C5.23683212 22.06031439 2.94292064 22.70529906 -1.64453125 22.671875 C-5.36593453 22.03668186 -7.15312849 19.97270984 -9.75 17.3125 C-11.48498116 13.84253768 -11.35794181 10.09742805 -10.75 6.3125 C-8.3125 3.3125 -8.3125 3.3125 -5.75 1.3125 C-4.10962605 -0.32787395 -2.25523159 0.06338669 0 0 Z " fill="#8EBBD5" transform="translate(207.75,491.6875)"/>
<path d="M0 0 C2.8364952 1.87431154 4.49198002 3.96621863 6 7 C6.61676489 10.97470708 6.40752348 13.10344834 4.75 16.75 C2.37201686 19.80740689 0.8929071 21.70878352 -3.08203125 22.3203125 C-7.2192992 22.52614673 -9.42008631 22.36244605 -13 20.125 C-16.49687441 16.40957094 -16.32862375 13.41902765 -16.29296875 8.484375 C-15.88537873 5.02801166 -14.53723498 3.31336131 -12 1 C-8.22010728 -0.88994636 -4.0957871 -0.75778324 0 0 Z " fill="#8EBBD5" transform="translate(362,492)"/>
<path d="M0 0 C3.5578125 -0.0928125 3.5578125 -0.0928125 7.1875 -0.1875 C8.29387817 -0.22846802 8.29387817 -0.22846802 9.42260742 -0.27026367 C13.827366 -0.32558339 16.5179177 0.29171377 20 3 C21.2148059 5.42961179 21.23607267 7.16384116 21.3125 9.875 C21.34988281 10.73867188 21.38726563 11.60234375 21.42578125 12.4921875 C21 15 21 15 19.52734375 17.3046875 C15.81590357 19.79427797 12.60319439 19.43625936 8.25 19.25 C5.5275 19.1675 2.805 19.085 0 19 C0 12.73 0 6.46 0 0 Z " fill="#F0F1F2" transform="translate(498,528)"/>
<path d="M0 0 C3.5578125 -0.0928125 3.5578125 -0.0928125 7.1875 -0.1875 C8.29387817 -0.22846802 8.29387817 -0.22846802 9.42260742 -0.27026367 C13.83987371 -0.32574048 16.48869766 0.32565614 20 3 C22.10101595 5.6740203 21.99846976 7.04284685 21.875 10.5 C20.87811906 14.48752378 20.30213789 15.61914823 17 18 C14.06253483 18.48397595 11.21659178 18.37693104 8.25 18.25 C5.5275 18.1675 2.805 18.085 0 18 C0 12.06 0 6.12 0 0 Z " fill="#F4F4F4" transform="translate(821,528)"/>
<path d="M0 0 C5.94 0 11.88 0 18 0 C19.65669018 3.31338036 19.13805295 7.01427235 19.12939453 10.65649414 C19.13114685 11.55250839 19.13289917 12.44852264 19.13470459 13.37168884 C19.13911743 16.34286416 19.13618734 19.31398029 19.1328125 22.28515625 C19.13348564 24.34256502 19.13445575 26.39997371 19.13571167 28.4573822 C19.13718782 32.77245846 19.13503649 37.08751404 19.13037109 41.40258789 C19.12467029 46.94692916 19.12795556 52.49122206 19.13394356 58.03556156 C19.13754834 62.28446317 19.13641103 66.53335322 19.13381577 70.78225517 C19.13314645 72.82729536 19.13397507 74.87233658 19.13629532 76.91737556 C19.13882087 79.76924568 19.1349828 82.62103623 19.12939453 85.47290039 C19.13141876 86.32643097 19.13344299 87.17996155 19.13552856 88.05935669 C19.11426316 93.88573684 19.11426316 93.88573684 18 95 C16.65732587 95.08631874 15.31025678 95.10706473 13.96484375 95.09765625 C13.15595703 95.09443359 12.34707031 95.09121094 11.51367188 95.08789062 C10.66353516 95.07951172 9.81339844 95.07113281 8.9375 95.0625 C8.08349609 95.05798828 7.22949219 95.05347656 6.34960938 95.04882812 C4.23304337 95.03700373 2.11651315 95.01906769 0 95 C-1.4783226 92.04335481 -1.06032783 89.25770263 -1 86 C-0.01 85.505 -0.01 85.505 1 85 C1 87.64 1 90.28 1 93 C6.28 93 11.56 93 17 93 C17 62.97 17 32.94 17 2 C11.06 2 5.12 2 -1 2 C-0.67 1.34 -0.34 0.68 0 0 Z " fill="#FCFCFC" transform="translate(565,384)"/>
<path d="M0 0 C27 0 27 0 32 2 C28.64047644 3.11984119 26.33089543 3.028066 22.80078125 2.87890625 C21.16749878 2.81425171 21.16749878 2.81425171 19.5012207 2.74829102 C17.42780396 2.65632446 17.42780396 2.65632446 15.3125 2.5625 C10.919375 2.376875 6.52625 2.19125 2 2 C2 19.82 2 37.64 2 56 C3.98 56 5.96 56 8 56 C8 49.4 8 42.8 8 36 C8.33 36 8.66 36 9 36 C9 43.26 9 50.52 9 58 C6.03 58 3.06 58 0 58 C0 38.86 0 19.72 0 0 Z " fill="#1B2E39" transform="translate(811,519)"/>
<path d="M0 0 C3.96 0 7.92 0 12 0 C12 19.14 12 38.28 12 58 C9.03 58 6.06 58 3 58 C3 44.14 3 30.28 3 16 C3.33 16 3.66 16 4 16 C4 29.2 4 42.4 4 56 C5.98 56 7.96 56 10 56 C10 38.18 10 20.36 10 2 C1.36440544 2.01089951 1.36440544 2.01089951 -2 6 C-1.34 4.02 -0.68 2.04 0 0 Z " fill="#18272F" transform="translate(732,519)"/>
<path d="M0 0 C0.66 0 1.32 0 2 0 C2 0.66 2 1.32 2 2 C10.58 2 19.16 2 28 2 C28 2.33 28 2.66 28 3 C19.75 3 11.5 3 3 3 C3 6.3 3 9.6 3 13 C10.59 13 18.18 13 26 13 C26 13.33 26 13.66 26 14 C17.42 14.33 8.84 14.66 0 15 C0 10.05 0 5.1 0 0 Z " fill="#EAEBEC" transform="translate(768,528)"/>
<path d="M0 0 C0.66 0 1.32 0 2 0 C2 0.66 2 1.32 2 2 C6.62 2 11.24 2 16 2 C16 2.33 16 2.66 16 3 C11.71 3 7.42 3 3 3 C3 6.63 3 10.26 3 14 C16.365 14.495 16.365 14.495 30 15 C30 18.3 30 21.6 30 25 C29.67 25 29.34 25 29 25 C29 22.03 29 19.06 29 16 C19.43 16 9.86 16 0 16 C0 10.72 0 5.44 0 0 Z " fill="#EAEBEC" transform="translate(768,552)"/>
<path d="M0 0 C0.33 0 0.66 0 1 0 C1 8.58 1 17.16 1 26 C0.34 26.33 -0.32 26.66 -1 27 C-1 20.4 -1 13.8 -1 7 C-1.99 6.67 -2.98 6.34 -4 6 C-2.69593116 3.98079663 -1.36176581 1.98075027 0 0 Z " fill="#FBFBFB" transform="translate(565,413)"/>
<path d="M0 0 C5.94 0 11.88 0 18 0 C13.0754853 3.2830098 7.82305673 2.11530805 2 2 C1.67 8.27 1.34 14.54 1 21 C0.67 21 0.34 21 0 21 C0 14.07 0 7.14 0 0 Z " fill="#DDE0E2" transform="translate(498,556)"/>
<path d="M0 0 C0.33 0 0.66 0 1 0 C1 7.26 1 14.52 1 22 C-1.97 22 -4.94 22 -8 22 C-8 19.03 -8 16.06 -8 13 C-7.34 12.67 -6.68 12.34 -6 12 C-6 14.64 -6 17.28 -6 20 C-4.02 20 -2.04 20 0 20 C0 13.4 0 6.8 0 0 Z " fill="#13222C" transform="translate(819,555)"/>
<path d="M0 0 C3.96 0 7.92 0 12 0 C11.67 6.93 11.34 13.86 11 21 C10.67 21 10.34 21 10 21 C10 14.73 10 8.46 10 2 C1.36440544 2.01089951 1.36440544 2.01089951 -2 6 C-1.34 4.02 -0.68 2.04 0 0 Z " fill="#1E2F39" transform="translate(732,519)"/>
<path d="M0 0 C-0.61875 0.061875 -1.2375 0.12375 -1.875 0.1875 C-2.926875 0.5896875 -2.926875 0.5896875 -4 1 C-4.33 1.825 -4.66 2.65 -5 3.5 C-5.33 4.325 -5.66 5.15 -6 6 C-8.0625 6.6875 -8.0625 6.6875 -10 7 C-10.33 7.66 -10.66 8.32 -11 9 C-11.66 9 -12.32 9 -13 9 C-13.99 12.465 -13.99 12.465 -15 16 C-15.98737625 13.41401458 -16.15846853 12.36294405 -15.03125 9.78125 C-6.91791045 -2.30597015 -6.91791045 -2.30597015 0 0 Z " fill="#212E37" transform="translate(202,482)"/>
<path d="M0 0 C3.96 0 7.92 0 12 0 C11.01 1.32 10.02 2.64 9 4 C9 3.34 9 2.68 9 2 C4.8299338 1.76364948 4.8299338 1.76364948 1 3 C-1.54348773 6.426791 -3.30181811 10.09546815 -5 14 C-5.33 13.34 -5.66 12.68 -6 12 C-4.78515625 9.1796875 -4.78515625 9.1796875 -3.0625 5.875 C-2.49660156 4.77929688 -1.93070313 3.68359375 -1.34765625 2.5546875 C-0.90292969 1.71164062 -0.45820312 0.86859375 0 0 Z " fill="#1D2A34" transform="translate(668,519)"/>
<path d="M0 0 C0.33 0.66 0.66 1.32 1 2 C-2.86364295 6.48717034 -6.74790208 10.87675353 -11 15 C-11.99 14.67 -12.98 14.34 -14 14 C-9.38 9.38 -4.76 4.76 0 0 Z " fill="#DDE0E1" transform="translate(323,544)"/>
<path d="M0 0 C-1.24716797 0.07347656 -1.24716797 0.07347656 -2.51953125 0.1484375 C-3.60621094 0.22320312 -4.69289063 0.29796875 -5.8125 0.375 C-6.89144531 0.44460938 -7.97039062 0.51421875 -9.08203125 0.5859375 C-12.18626186 0.81195733 -12.18626186 0.81195733 -15 3 C-15 2.34 -15 1.68 -15 1 C-16.98 1.33 -18.96 1.66 -21 2 C-15.85843619 -3.14156381 -6.10981638 -3.3471168 0 0 Z " fill="#1B2832" transform="translate(289,394)"/>
<path d="M0 0 C0.99 0.33 1.98 0.66 3 1 C3 5.29 3 9.58 3 14 C2.01 14.495 2.01 14.495 1 15 C-0.32286246 10.03926578 -0.08893197 5.08888488 0 0 Z " fill="#EBECED" transform="translate(547,543)"/>
<path d="M0 0 C1.05445313 0.07863281 2.10890625 0.15726562 3.1953125 0.23828125 C5.875 0.6875 5.875 0.6875 7.875 2.6875 C6.80572266 2.67009766 6.80572266 2.67009766 5.71484375 2.65234375 C0.31174634 2.60143974 -4.80328475 2.74141729 -10.125 3.6875 C-10.125 2.6975 -10.125 1.7075 -10.125 0.6875 C-6.63288957 -0.43436156 -3.63654403 -0.29932242 0 0 Z " fill="#E5E7E8" transform="translate(281.125,390.3125)"/>
<path d="M0 0 C0.99 0.33 1.98 0.66 3 1 C2.67 1.99 2.34 2.98 2 4 C1.92970879 6.57265818 1.90629168 9.11641431 1.9375 11.6875 C1.94201172 12.38939453 1.94652344 13.09128906 1.95117188 13.81445312 C1.96293073 15.54300538 1.98086546 17.27151365 2 19 C1.34 19 0.68 19 0 19 C-1.03158741 15.60231132 -1.13377596 12.47860037 -1.125 8.9375 C-1.12757813 7.89464844 -1.13015625 6.85179687 -1.1328125 5.77734375 C-1 3 -1 3 0 0 Z " fill="#DCDEDF" transform="translate(333,492)"/>
<path d="M0 0 C3.3 0 6.6 0 10 0 C10 0.99 10 1.98 10 3 C7.69 3 5.38 3 3 3 C3.33 4.32 3.66 5.64 4 7 C1.23609263 4.59660228 0.95934081 3.83736322 0 0 Z " fill="#1B2B33" transform="translate(632,519)"/>
<path d="M0 0 C0.89589844 -0.01417969 1.79179687 -0.02835937 2.71484375 -0.04296875 C5.0625 0.1875 5.0625 0.1875 7.0625 2.1875 C6.39863281 2.22488281 5.73476563 2.26226562 5.05078125 2.30078125 C-0.00786379 2.6774103 -3.77930819 2.99955295 -7.9375 6.1875 C-5.57306884 0.03997897 -5.57306884 0.03997897 0 0 Z " fill="#26353C" transform="translate(354.9375,489.8125)"/>
<path d="M0 0 C0.66 0.33 1.32 0.66 2 1 C2.625 4.0625 2.625 4.0625 3 7 C-0.3 7 -3.6 7 -7 7 C-6.67 6.34 -6.34 5.68 -6 5 C-3.69 5 -1.38 5 1 5 C0.67 3.35 0.34 1.7 0 0 Z " fill="#18262E" transform="translate(899,527)"/>
<path d="M0 0 C0 0.66 0 1.32 0 2 C-3.63 2 -7.26 2 -11 2 C-11.33 1.34 -11.66 0.68 -12 0 C-10.37585622 -0.19477739 -8.75063577 -0.38059458 -7.125 -0.5625 C-6.22007812 -0.66691406 -5.31515625 -0.77132812 -4.3828125 -0.87890625 C-2 -1 -2 -1 0 0 Z " fill="#1E2E38" transform="translate(854,575)"/>
<path d="M0 0 C0 3 0 3 -1.42578125 4.7890625 C-2.04839844 5.39492188 -2.67101562 6.00078125 -3.3125 6.625 C-4.23482422 7.54152344 -4.23482422 7.54152344 -5.17578125 8.4765625 C-7 10 -7 10 -10 11 C-8.55218207 7.55571735 -6.72305391 5.63869038 -3.875 3.25 C-3.15054688 2.63640625 -2.42609375 2.0228125 -1.6796875 1.390625 C-0.84824219 0.70226562 -0.84824219 0.70226562 0 0 Z " fill="#263139" transform="translate(246,455)"/>
<path d="M0 0 C4.50884026 2.31883213 6.93906776 5.06451569 10 9 C8.125 8.75 8.125 8.75 6 8 C4.75 5.9375 4.75 5.9375 4 4 C3.34 4 2.68 4 2 4 C2 3.34 2 2.68 2 2 C1.34 2 0.68 2 0 2 C0 1.34 0 0.68 0 0 Z " fill="#DADCDD" transform="translate(233,538)"/>
<path d="M0 0 C0.33 0.66 0.66 1.32 1 2 C1.66 2 2.32 2 3 2 C5 8.625 5 8.625 5 12 C4.15556432 10.75747321 3.3248542 9.5056114 2.5 8.25 C1.80390625 7.20585938 1.80390625 7.20585938 1.09375 6.140625 C0 4 0 4 0 0 Z " fill="#19262F" transform="translate(256,581)"/>
<path d="M0 0 C0.99 0.33 1.98 0.66 3 1 C0.6875 3.5 0.6875 3.5 -2 6 C-2.99 6 -3.98 6 -5 6 C-5 5.34 -5 4.68 -5 4 C-2.6875 1.8125 -2.6875 1.8125 0 0 Z " fill="#ECEDEE" transform="translate(580,570)"/>
<path d="M0 0 C0.33 0.66 0.66 1.32 1 2 C0.34 2 -0.32 2 -1 2 C-1.33 2.99 -1.66 3.98 -2 5 C-3.84765625 5.73046875 -3.84765625 5.73046875 -6.0625 6.1875 C-6.79597656 6.34605469 -7.52945313 6.50460937 -8.28515625 6.66796875 C-9.13400391 6.83232422 -9.13400391 6.83232422 -10 7 C-7.2180632 3.72713318 -3.72045933 2.03572303 0 0 Z " fill="#1B2830" transform="translate(201,377)"/>
<path d="M0 0 C0.66 0.33 1.32 0.66 2 1 C-1.44615385 5.8 -1.44615385 5.8 -4.25 6.8125 C-5.11625 6.9053125 -5.11625 6.9053125 -6 7 C-4.60667426 3.63279613 -3.0210714 2.0140476 0 0 Z " fill="#243038" transform="translate(549,521)"/>
<path d="M0 0 C2.97 0.33 5.94 0.66 9 1 C7 3 7 3 3.875 3.125 C2.451875 3.063125 2.451875 3.063125 1 3 C0.67 2.01 0.34 1.02 0 0 Z " fill="#E8E9EA" transform="translate(876,551)"/>
<path d="M0 0 C2.125 0.375 2.125 0.375 4 1 C2.02 2.32 0.04 3.64 -2 5 C-2 2 -2 2 0 0 Z M-3 5 C-2.67 5.66 -2.34 6.32 -2 7 C-2.66 6.67 -3.32 6.34 -4 6 C-3.67 5.67 -3.34 5.34 -3 5 Z " fill="#394851" transform="translate(235,465)"/>
<path d="M0 0 C2.97 1.98 2.97 1.98 6 4 C5.01 5.32 4.02 6.64 3 8 C0 3.375 0 3.375 0 0 Z " fill="#EAECED" transform="translate(713,539)"/>
<path d="M0 0 C0.66 0 1.32 0 2 0 C2.33 2.64 2.66 5.28 3 8 C2.01 8 1.02 8 0 8 C0 5.36 0 2.72 0 0 Z " fill="#E4E6E7" transform="translate(840,532)"/>
<path d="M0 0 C1.65 0 3.3 0 5 0 C5.33 0.99 5.66 1.98 6 3 C4.02 3 2.04 3 0 3 C0 2.01 0 1.02 0 0 Z " fill="#EAEBEB" transform="translate(205,477)"/>
<path d="M0 0 C0.66 0 1.32 0 2 0 C3.2890625 1.75 3.2890625 1.75 4.625 4 C5.07101562 4.7425 5.51703125 5.485 5.9765625 6.25 C6.31429687 6.8275 6.65203125 7.405 7 8 C4.625 7.375 4.625 7.375 2 6 C0.6875 2.875 0.6875 2.875 0 0 Z " fill="#ECECEE" transform="translate(506,413)"/>
</svg>
